<svg width="24" height="24" viewBox="0 0 24 24" fill="none" xmlns="http://www.w3.org/2000/svg">
<path d="M17 11H16V13H17V11Z" fill="black"/>
<path d="M16 13V15H15V16H13V15H14V14H15V13H16Z" fill="black"/>
<path d="M16 9V11H15V10H14V9H13V8H15V9H16Z" fill="black"/>
<path d="M13 16H11V17H13V16Z" fill="black"/>
<path d="M11 15V16H9V15H8V13H9V14H10V15H11Z" fill="black"/>
<path d="M13 7V8H12V11H11V12H8V13H7V11H8V9H9V8H11V7H13Z" fill="black"/>
<path d="M22 11V9H21V8H20V7H19V6H17V5H7V6H5V7H4V8H3V9H2V11H1V13H2V15H3V16H4V17H5V18H7V19H17V18H19V17H20V16H21V15H22V13H23V11H22ZM21 14H20V15H19V16H18V17H16V18H8V17H7V16H5V15H4V14H3V10H4V9H5V8H6V7H8V6H16V7H18V8H19V9H20V10H21V14Z" fill="black"/>
</svg>
