<svg width="30" height="31" viewBox="0 0 30 31" fill="none" xmlns="http://www.w3.org/2000/svg">
<g filter="url(#filter0_d_185_586)">
<path d="M20 9.99976H21V11.9998H20V12.9998H19V13.9998H18V14.9998H17V15.9998H16V16.9998H15V17.9998H14V18.9998H13V19.9998H12V20.9998H11V21.9998H10V22.9998H4V16.9998H5V15.9998H6V14.9998H7V13.9998H8V12.9998H9V11.9998H10V10.9998H11V9.99976H12V8.99976H13V7.99976H14V6.99976H15V5.99976H17V6.99976H18V7.99976H19V8.99976H20V9.99976Z" fill="black"/>
<path d="M26 4.99976V6.99976H25V7.99976H24V8.99976H23V9.99976H22V8.99976H21V7.99976H20V6.99976H19V5.99976H18V4.99976H17V3.99976H18V2.99976H19V1.99976H20V0.999756H22V1.99976H23V2.99976H24V3.99976H25V4.99976H26Z" fill="black"/>
</g>
<defs>
<filter id="filter0_d_185_586" x="-1" y="0" width="32" height="32" filterUnits="userSpaceOnUse" color-interpolation-filters="sRGB">
<feFlood flood-opacity="0" result="BackgroundImageFix"/>
<feColorMatrix in="SourceAlpha" type="matrix" values="0 0 0 0 0 0 0 0 0 0 0 0 0 0 0 0 0 0 127 0" result="hardAlpha"/>
<feOffset dy="4"/>
<feGaussianBlur stdDeviation="2"/>
<feComposite in2="hardAlpha" operator="out"/>
<feColorMatrix type="matrix" values="0 0 0 0 0 0 0 0 0 0 0 0 0 0 0 0 0 0 0.25 0"/>
<feBlend mode="normal" in2="BackgroundImageFix" result="effect1_dropShadow_185_586"/>
<feBlend mode="normal" in="SourceGraphic" in2="effect1_dropShadow_185_586" result="shape"/>
</filter>
</defs>
</svg>
